<?xml version="1.0" encoding="UTF-8" standalone="no"?>
<!-- License: CC Attribution. Made by zafdesign: https://dribbble.com/zafdesign -->

<svg
   width="29.018px"
   height="29.018px"
   viewBox="0 -0.59 29.018 29.018"
   id="_25_-_Star"
   data-name="25 - Star"
   version="1.1"
   sodipodi:docname="filled-star-review.svg"
   inkscape:version="1.2 (dc2aedaf03, 2022-05-15)"
   xmlns:inkscape="http://www.inkscape.org/namespaces/inkscape"
   xmlns:sodipodi="http://sodipodi.sourceforge.net/DTD/sodipodi-0.dtd"
   xmlns="http://www.w3.org/2000/svg"
   xmlns:svg="http://www.w3.org/2000/svg">
  <defs
     id="defs33">
    <rect
       x="14.544648"
       y="2.4954054"
       width="2.3171621"
       height="21.710027"
       id="rect193" />
  </defs>
  <sodipodi:namedview
     id="namedview31"
     pagecolor="#ffffff"
     bordercolor="#eeeeee"
     borderopacity="1"
     inkscape:showpageshadow="0"
     inkscape:pageopacity="0"
     inkscape:pagecheckerboard="0"
     inkscape:deskcolor="#505050"
     showgrid="false"
     inkscape:zoom="22.627417"
     inkscape:cx="6.6512232"
     inkscape:cy="15.026019"
     inkscape:window-width="1920"
     inkscape:window-height="1017"
     inkscape:window-x="1912"
     inkscape:window-y="-8"
     inkscape:window-maximized="1"
     inkscape:current-layer="_25_-_Star" />
  <path
     sodipodi:type="star"
     style="fill:#7bdd69;fill-opacity:1;stroke:none;stroke-opacity:1"
     id="path1823"
     inkscape:flatsided="false"
     sodipodi:sides="5"
     sodipodi:cx="14.318912"
     sodipodi:cy="15.423766"
     sodipodi:r1="14.283952"
     sodipodi:r2="6.7299747"
     sodipodi:arg1="0.93472082"
     sodipodi:arg2="1.5850033"
     inkscape:rounded="0"
     inkscape:randomized="0"
     d="M 22.804194,26.914252 14.223302,22.153062 6.0129064,27.044504 7.8894262,17.412303 0.70023603,11.115291 10.44088,9.9234539 l 3.767232,-8.7832098 4.14353,8.8956049 9.517467,0.86869 -7.179802,6.689624 z"
     transform="translate(0.13258252,-0.32483496)"
     inkscape:transform-center-x="-0.0040902451"
     inkscape:transform-center-y="-1.2471311" />
  <path
     id="_25_-_Star-2"
     data-name="25 - Star"
     d="M13.645,4.01l-2.057,6.334a1.013,1.013,0,0,1-.962.7H3.967a2.475,2.475,0,0,0-1.456,4.478L7.9,19.435a1.011,1.011,0,0,1,.367,1.131L6.208,26.9a2.476,2.476,0,0,0,3.81,2.768l5.388-3.914a1.012,1.012,0,0,1,1.188,0l5.388,3.914a2.476,2.476,0,0,0,3.81-2.768l-2.058-6.333a1.011,1.011,0,0,1,.367-1.131l5.388-3.914a2.475,2.475,0,0,0-1.456-4.478H21.374a1.013,1.013,0,0,1-.962-.7L18.355,4.01a2.477,2.477,0,0,0-4.71,0Zm1.9.618a.475.475,0,0,1,.9,0l2.058,6.334a3.012,3.012,0,0,0,2.864,2.081h6.659a.475.475,0,0,1,.28.86l-5.387,3.914a3.011,3.011,0,0,0-1.094,3.367l2.058,6.333a.476.476,0,0,1-.733.532L17.77,24.135a3.011,3.011,0,0,0-3.54,0L8.843,28.049a.476.476,0,0,1-.733-.532l2.058-6.333a3.011,3.011,0,0,0-1.094-3.367L3.687,13.9a.475.475,0,0,1,.28-.86h6.659a3.012,3.012,0,0,0,2.864-2.081l2.058-6.334Z"
     fill-rule="evenodd"
     transform="translate(-1.491,-2.3)"
     style="fill:#8f8f8f;fill-opacity:1" />
</svg>
