<?xml version="1.0" encoding="UTF-8" standalone="no"?>
<!-- License: CC Attribution. Made by zafdesign: https://dribbble.com/zafdesign -->

<svg
   width="29.018px"
   height="29.018px"
   viewBox="0 -0.59 29.018 29.018"
   id="_25_-_Star"
   data-name="25 - Star"
   version="1.1"
   sodipodi:docname="filled-star-25.svg"
   inkscape:version="1.2 (dc2aedaf03, 2022-05-15)"
   xmlns:inkscape="http://www.inkscape.org/namespaces/inkscape"
   xmlns:sodipodi="http://sodipodi.sourceforge.net/DTD/sodipodi-0.dtd"
   xmlns="http://www.w3.org/2000/svg"
   xmlns:svg="http://www.w3.org/2000/svg">
  <defs
     id="defs33">
    <rect
       x="14.544648"
       y="2.4954054"
       width="2.3171621"
       height="21.710027"
       id="rect193" />
  </defs>
  <sodipodi:namedview
     id="namedview31"
     pagecolor="#ffffff"
     bordercolor="#eeeeee"
     borderopacity="1"
     inkscape:showpageshadow="0"
     inkscape:pageopacity="0"
     inkscape:pagecheckerboard="0"
     inkscape:deskcolor="#505050"
     showgrid="false"
     inkscape:zoom="22.627417"
     inkscape:cx="11.247417"
     inkscape:cy="14.009553"
     inkscape:window-width="1920"
     inkscape:window-height="1017"
     inkscape:window-x="-8"
     inkscape:window-y="-8"
     inkscape:window-maximized="1"
     inkscape:current-layer="_25_-_Star" />
  <path
     id="path1823"
     style="fill:#ffcc00;fill-opacity:1;stroke:none;stroke-opacity:1"
     inkscape:transform-center-x="-0.0040902451"
     inkscape:transform-center-y="-1.2471311"
     d="M 10.56273 9.641085 L 10.441636 9.9242881 L 0.69944873 11.115694 L 7.8889019 17.412569 L 6.0119487 27.045382 L 10.56273 24.334444 L 10.56273 9.641085 z "
     transform="translate(0.13258252,-0.32483496)" />
  <path
     id="_25_-_Star-2"
     data-name="25 - Star"
     d="M13.645,4.01l-2.057,6.334a1.013,1.013,0,0,1-.962.7H3.967a2.475,2.475,0,0,0-1.456,4.478L7.9,19.435a1.011,1.011,0,0,1,.367,1.131L6.208,26.9a2.476,2.476,0,0,0,3.81,2.768l5.388-3.914a1.012,1.012,0,0,1,1.188,0l5.388,3.914a2.476,2.476,0,0,0,3.81-2.768l-2.058-6.333a1.011,1.011,0,0,1,.367-1.131l5.388-3.914a2.475,2.475,0,0,0-1.456-4.478H21.374a1.013,1.013,0,0,1-.962-.7L18.355,4.01a2.477,2.477,0,0,0-4.71,0Zm1.9.618a.475.475,0,0,1,.9,0l2.058,6.334a3.012,3.012,0,0,0,2.864,2.081h6.659a.475.475,0,0,1,.28.86l-5.387,3.914a3.011,3.011,0,0,0-1.094,3.367l2.058,6.333a.476.476,0,0,1-.733.532L17.77,24.135a3.011,3.011,0,0,0-3.54,0L8.843,28.049a.476.476,0,0,1-.733-.532l2.058-6.333a3.011,3.011,0,0,0-1.094-3.367L3.687,13.9a.475.475,0,0,1,.28-.86h6.659a3.012,3.012,0,0,0,2.864-2.081l2.058-6.334Z"
     fill-rule="evenodd"
     style="fill:#8f8f8f;fill-opacity:1"
     transform="translate(-1.491,-2.3)" />
</svg>
